<?xml version="1.0" encoding="utf-8"?>
<!-- Generator: Adobe Illustrator 16.0.0, SVG Export Plug-In . SVG Version: 6.00 Build 0)  -->
<!DOCTYPE svg PUBLIC "-//W3C//DTD SVG 1.1//EN" "http://www.w3.org/Graphics/SVG/1.1/DTD/svg11.dtd">
<svg version="1.1" id="Layer_1" xmlns="http://www.w3.org/2000/svg" xmlns:xlink="http://www.w3.org/1999/xlink" x="0px" y="0px"
	 width="106px" height="100px" viewBox="-3.5 0 106 100" enable-background="new -3.5 0 106 100" xml:space="preserve">
<g>
	<path d="M28.75,85.973c-0.474,0-0.938-0.193-1.272-0.531c-0.327-0.324-0.521-0.787-0.521-1.262V13.47
		c0-0.481,0.197-0.948,0.54-1.282c0.319-0.32,0.781-0.511,1.253-0.511h9.187c0.833,0,1.55,0.566,1.743,1.375l16.97,70.709
		c0.124,0.527,0.008,1.074-0.317,1.505c-0.362,0.458-0.875,0.706-1.426,0.706H28.75z"/>
	<path fill="#FFFFFF" d="M37.937,13.177c0.136,0,0.253,0.093,0.284,0.224l16.97,70.71c0.021,0.087,0,0.178-0.055,0.25
		c-0.056,0.07-0.141,0.111-0.229,0.111H28.75c-0.077,0-0.152-0.031-0.207-0.087c-0.054-0.054-0.086-0.129-0.086-0.206V13.47
		c0-0.078,0.032-0.154,0.086-0.207c0.055-0.055,0.13-0.086,0.207-0.086H37.937 M37.937,10.177H28.75
		c-0.867,0-1.715,0.352-2.329,0.965c-0.602,0.585-0.964,1.445-0.964,2.328V84.18c0,0.871,0.355,1.724,0.974,2.337
		c0.595,0.601,1.447,0.956,2.319,0.956h26.157c1.012,0,1.953-0.455,2.582-1.249l0.02-0.026l0.021-0.025
		c0.596-0.788,0.809-1.79,0.582-2.749L41.138,12.701C40.784,11.216,39.467,10.177,37.937,10.177L37.937,10.177z"/>
</g>
<g>
	<path d="M60.165,72.18c-1.137,0-2.242-0.214-3.285-0.635c-0.239-0.095-0.48-0.207-0.719-0.329l-0.607-0.313L51.51,54.423
		l3.646,3.03c0.23,0.189,0.459,0.38,0.675,0.583l0.403,0.393c0.502,0.468,1.105,0.853,1.768,1.119
		c0.688,0.275,1.415,0.415,2.159,0.415c0.829-0.008,1.564-0.16,2.255-0.452c0.672-0.284,1.277-0.688,1.799-1.2
		c0.34-0.328,0.713-0.615,1.117-0.861c1.426-1.209,2.99-2.179,4.651-2.882c2.18-0.923,4.491-1.403,6.871-1.429l0.002,0.207
		l-0.001-0.207l0.203-0.002c2.34,0,4.621,0.441,6.78,1.313c2.078,0.836,3.969,2.042,5.618,3.582l0.404,0.396
		c0.502,0.467,1.106,0.852,1.769,1.118c0.686,0.276,1.412,0.416,2.159,0.416c0.83-0.008,1.565-0.16,2.254-0.451
		c0.632-0.268,1.204-0.64,1.703-1.107l2.656-3.991v15.102l-0.635,0.321c-0.755,0.698-1.613,1.254-2.556,1.653
		c-1.053,0.443-2.169,0.675-3.321,0.689c-0.001,0-0.02,0-0.02,0c-1.229-0.002-2.327-0.215-3.362-0.633
		c-1-0.401-1.915-0.984-2.717-1.731l-0.336-0.327c-1.424-1.332-3.002-2.338-4.738-3.039c-1.797-0.726-3.7-1.094-5.657-1.094h-0.19
		c-1.972,0.021-3.9,0.423-5.717,1.192c-1.41,0.597-2.744,1.431-3.965,2.479l-0.106,0.091l-0.122,0.07
		c-0.243,0.141-0.462,0.304-0.648,0.485c-0.795,0.778-1.714,1.391-2.729,1.818c-1.049,0.442-2.166,0.675-3.32,0.69l-0.018-1.253
		l0.003,1.253H60.165z"/>
	<path fill="#FFFFFF" d="M77.059,54.637c2.186,0,4.295,0.428,6.219,1.204c1.926,0.775,3.668,1.898,5.156,3.288l0.069,0.068
		l0.31,0.303c0.656,0.611,1.422,1.102,2.258,1.438c0.839,0.338,1.746,0.524,2.719,0.524h0.086c0.988-0.011,1.908-0.213,2.752-0.569
		c0.846-0.358,1.616-0.873,2.268-1.513c0.004-0.003,0.006-0.004,0.008-0.007v9.216c-0.002,0.001-0.004,0.005-0.008,0.007
		c-0.652,0.637-1.422,1.153-2.268,1.512c-0.845,0.355-1.766,0.558-2.756,0.57h0.005h-0.083c-0.975,0-1.883-0.185-2.723-0.523
		c-0.836-0.336-1.6-0.827-2.256-1.438l-0.312-0.304l-0.071-0.068c-1.486-1.389-3.228-2.511-5.152-3.287
		c-1.924-0.777-4.032-1.203-6.219-1.203c-0.061,0-0.129,0-0.203,0h0.013c-2.224,0.024-4.361,0.489-6.302,1.312
		c-1.603,0.678-3.061,1.608-4.356,2.721c-0.336,0.193-0.655,0.427-0.946,0.71c-0.652,0.639-1.42,1.155-2.266,1.512
		s-1.766,0.559-2.758,0.572h0.006h-0.083c-0.974,0-1.882-0.186-2.724-0.525c-0.201-0.08-0.398-0.172-0.594-0.272l-2.796-11.396
		c0.255,0.212,0.513,0.418,0.753,0.644l0.076,0.073l0.305,0.298c0.656,0.612,1.422,1.103,2.256,1.438
		c0.841,0.336,1.748,0.523,2.72,0.523h0.086c0.989-0.011,1.907-0.213,2.753-0.57c0.844-0.357,1.613-0.871,2.266-1.512
		c0.291-0.281,0.607-0.514,0.942-0.707c1.297-1.115,2.757-2.046,4.36-2.725c1.941-0.822,4.078-1.287,6.302-1.311h-0.015
		C76.932,54.639,76.999,54.637,77.059,54.637 M101.902,49.483l-5.3,7.932c-0.341,0.297-0.726,0.537-1.146,0.716
		c-0.505,0.213-1.049,0.325-1.613,0.331h-0.054c-0.562,0-1.085-0.101-1.598-0.308c-0.483-0.193-0.923-0.472-1.311-0.828l-0.28-0.273
		l-0.061-0.061l-0.029-0.028l-0.029-0.027c-1.786-1.667-3.832-2.973-6.084-3.879c-2.336-0.942-4.806-1.421-7.339-1.421l-0.133,0.001
		l-0.07,0.001v1.61l-0.017-1.61c-2.576,0.027-5.079,0.548-7.44,1.548c-1.767,0.748-3.431,1.771-4.949,3.045
		c-0.46,0.289-0.886,0.622-1.269,0.992c-0.403,0.396-0.852,0.695-1.351,0.906c-0.515,0.218-1.044,0.327-1.615,0.333h-0.054
		c-0.561,0-1.086-0.102-1.606-0.31c-0.474-0.19-0.913-0.469-1.3-0.825l-0.277-0.271l-0.094-0.09
		c-0.266-0.25-0.518-0.461-0.772-0.672L55.97,56.18l-7.001-5.821l2.169,8.843l2.796,11.396l0.326,1.327l1.215,0.625
		c0.294,0.152,0.575,0.28,0.857,0.393c1.208,0.488,2.503,0.738,3.833,0.738h0.083v-2.574l0.035,2.574
		c1.349-0.019,2.654-0.291,3.882-0.808c1.189-0.502,2.267-1.219,3.199-2.133c0.092-0.089,0.207-0.174,0.344-0.254l0.244-0.14
		l0.214-0.184c1.103-0.946,2.305-1.698,3.571-2.234c1.632-0.691,3.364-1.053,5.149-1.074h0.174c1.764,0,3.478,0.331,5.095,0.984
		c1.566,0.632,2.988,1.539,4.229,2.698l0.043,0.041l0.294,0.287l0.024,0.023l0.024,0.023c0.938,0.873,2.008,1.555,3.183,2.026
		c1.215,0.491,2.509,0.74,3.841,0.74h0.083v-2.619l0.033,2.619c1.348-0.018,2.653-0.288,3.882-0.806
		c1.038-0.439,1.986-1.038,2.827-1.783l0.131-0.065l0.003-0.004l1.15-0.571v-1.859v-9.216V49.483L101.902,49.483z"/>
</g>
<g>
	<path d="M60.164,86.076c-0.302,0-0.604-0.009-0.904-0.023l-1.116-0.056l-3.529-14.39l2.909,1.469
		c0.156,0.078,0.312,0.152,0.473,0.216c0.691,0.279,1.419,0.419,2.169,0.419l0.083,3l-0.022-3c0.76-0.008,1.497-0.161,2.19-0.454
		c0.672-0.283,1.276-0.688,1.799-1.2c0.331-0.323,0.707-0.613,1.122-0.864c1.424-1.206,2.986-2.175,4.646-2.878
		c2.176-0.921,4.482-1.401,6.854-1.429l0.223-0.002c2.343,0,4.624,0.441,6.78,1.313c2.078,0.837,3.968,2.043,5.615,3.582
		l0.403,0.391c0.505,0.472,1.107,0.855,1.771,1.122c0.685,0.277,1.412,0.417,2.163,0.417c0.821-0.008,1.558-0.161,2.248-0.454
		c0.679-0.288,1.285-0.691,1.802-1.199l0.435-0.434l2.123-0.001v13.244l-1.041,0.334c-1.743,0.561-3.548,0.854-5.362,0.874
		l-0.205,0.002c-2.342,0-4.624-0.441-6.784-1.312c-2.086-0.842-3.978-2.049-5.622-3.587l-0.407-0.396
		c-0.5-0.466-1.102-0.85-1.762-1.115c-0.686-0.276-1.411-0.417-2.156-0.417l-0.075,0.002c-0.76,0.008-1.494,0.159-2.184,0.451
		c-0.67,0.283-1.274,0.688-1.8,1.202c-0.336,0.327-0.713,0.617-1.124,0.864c-1.421,1.205-2.982,2.172-4.645,2.876
		c-2.177,0.922-4.486,1.403-6.864,1.431L60.164,86.076z"/>
	<path fill="#FFFFFF" d="M77.061,68.384c2.187,0,4.295,0.427,6.219,1.204c1.924,0.775,3.666,1.898,5.152,3.287l0.071,0.068
		l0.312,0.303c0.656,0.613,1.42,1.102,2.256,1.438c0.84,0.34,1.748,0.525,2.723,0.525h0.078h0.005h-0.005
		c0.99-0.011,1.911-0.215,2.756-0.573c0.846-0.358,1.616-0.87,2.268-1.511c0.004-0.002,0.004-0.004,0.006-0.004v10.65
		c-1.557,0.5-3.213,0.783-4.92,0.802h-0.006c-0.063,0.002-0.121,0.002-0.183,0.002c-2.187,0-4.297-0.427-6.224-1.203
		c-1.926-0.777-3.67-1.899-5.158-3.291l-0.07-0.067l-0.312-0.306c-0.652-0.608-1.416-1.099-2.25-1.435
		c-0.838-0.338-1.746-0.525-2.717-0.525h-0.076l-0.014,0.002c-0.988,0.01-1.908,0.212-2.754,0.57
		c-0.844,0.356-1.611,0.871-2.265,1.511c-0.291,0.284-0.611,0.519-0.947,0.71c-1.294,1.113-2.753,2.042-4.356,2.721
		c-1.94,0.822-4.074,1.287-6.297,1.312h-0.004c-0.064,0.002-0.123,0.002-0.184,0.002c-0.277,0-0.555-0.008-0.83-0.021l-2.486-10.14
		c0.195,0.099,0.393,0.19,0.594,0.271c0.842,0.34,1.75,0.525,2.724,0.525h0.077h0.006h-0.006c0.992-0.011,1.912-0.215,2.758-0.572
		s1.613-0.871,2.266-1.512c0.291-0.284,0.61-0.516,0.946-0.709c1.295-1.113,2.753-2.043,4.356-2.723
		c1.941-0.821,4.078-1.286,6.302-1.31h-0.013C76.932,68.385,76.999,68.384,77.061,68.384 M77.061,65.384l-0.223,0.002
		c-2.574,0.027-5.077,0.548-7.438,1.547c-1.767,0.749-3.429,1.771-4.944,3.041c-0.472,0.296-0.903,0.634-1.285,1.007
		c-0.394,0.386-0.841,0.685-1.338,0.895c-0.516,0.219-1.042,0.328-1.608,0.336h-0.059c-0.564,0-1.089-0.101-1.601-0.308
		c-0.133-0.053-0.249-0.107-0.364-0.166l-5.818-2.938l1.552,6.331l2.486,10.14l0.533,2.171l2.232,0.11
		c0.324,0.017,0.651,0.025,0.979,0.025c0.087,0,0.172,0,0.264-0.003c2.584-0.039,5.058-0.561,7.392-1.549
		c1.766-0.748,3.427-1.769,4.939-3.037c0.469-0.292,0.901-0.631,1.289-1.01c0.394-0.385,0.842-0.685,1.336-0.894
		c0.519-0.22,1.046-0.328,1.616-0.334l0.13-0.001c0.527,0.008,1.04,0.111,1.525,0.307c0.479,0.193,0.918,0.471,1.303,0.825
		l0.284,0.277l0.092,0.089c1.808,1.69,3.854,2.996,6.111,3.907c2.341,0.943,4.812,1.421,7.347,1.421c0.088,0,0.171,0,0.261-0.003
		c1.977-0.029,3.903-0.347,5.765-0.944l2.083-0.669v-2.188v-10.65v-3h-3h-1.244l-0.818,0.819l-0.047,0.046
		c-0.382,0.375-0.831,0.674-1.335,0.888c-0.514,0.218-1.038,0.327-1.604,0.335h-0.06c-0.565,0-1.088-0.101-1.598-0.307
		c-0.489-0.196-0.929-0.475-1.313-0.831l-0.288-0.279l-0.086-0.083c-1.811-1.691-3.856-2.996-6.107-3.903
		C82.067,65.862,79.597,65.384,77.061,65.384L77.061,65.384z"/>
</g>
<g>
	<rect x="-1.487" y="68.208" width="26.555" height="17.658"/>
	<path fill="#FFFFFF" d="M23.568,69.708v7.094v0.472v7.093H0.013v-7.093v-0.472v-7.094H23.568 M26.568,66.708h-3H0.013h-3v3v7.094
		v0.472v7.093v3h3h23.555h3v-3v-7.093v-0.472v-7.094V66.708L26.568,66.708z"/>
</g>
<g>
	<rect x="-1.487" y="49.695" width="26.555" height="17.658"/>
	<path fill="#FFFFFF" d="M23.568,51.195v7.093v0.472v7.094H0.013V58.76v-0.472v-7.093H23.568 M26.568,48.195h-3H0.013h-3v3v7.093
		v0.472v7.094v3h3h23.555h3v-3V58.76v-0.472v-7.093V48.195L26.568,48.195z"/>
</g>
<g>
	<rect x="-1.487" y="31.182" width="26.555" height="17.657"/>
	<path fill="#FFFFFF" d="M23.568,32.682v7.092v0.474v7.091H0.013v-7.091v-0.474v-7.092H23.568 M26.568,29.682h-3H0.013h-3v3v7.092
		v0.474v7.091v3h3h23.555h3v-3v-7.091v-0.474v-7.092V29.682L26.568,29.682z"/>
</g>
</svg>
