<?xml version="1.0" encoding="utf-8"?>
<!-- Generator: Adobe Illustrator 16.0.0, SVG Export Plug-In . SVG Version: 6.00 Build 0)  -->
<!DOCTYPE svg PUBLIC "-//W3C//DTD SVG 1.1//EN" "http://www.w3.org/Graphics/SVG/1.1/DTD/svg11.dtd">
<svg version="1.1" id="Layer_1" xmlns="http://www.w3.org/2000/svg" xmlns:xlink="http://www.w3.org/1999/xlink" x="0px" y="0px"
	 width="106px" height="100px" viewBox="0 0 106 100" enable-background="new 0 0 106 100" xml:space="preserve">
<g>
	<path fill="#B2B2B2" d="M31.737,85.973c-0.474,0-0.938-0.193-1.272-0.531c-0.327-0.322-0.521-0.787-0.521-1.262V13.47
		c0-0.481,0.197-0.948,0.54-1.282c0.319-0.32,0.781-0.511,1.253-0.511h9.187c0.833,0,1.55,0.566,1.743,1.375l16.97,70.709
		c0.123,0.527,0.008,1.074-0.316,1.505c-0.362,0.459-0.875,0.707-1.426,0.707H31.737L31.737,85.973z"/>
	<path fill="#FFFFFF" d="M40.924,13.177c0.136,0,0.253,0.093,0.284,0.224l16.97,70.71c0.021,0.087,0,0.178-0.055,0.25
		c-0.057,0.07-0.141,0.111-0.229,0.111H31.737c-0.077,0-0.152-0.031-0.207-0.089c-0.054-0.054-0.086-0.129-0.086-0.204V13.47
		c0-0.078,0.032-0.154,0.086-0.207c0.055-0.055,0.13-0.086,0.207-0.086H40.924 M40.924,10.177h-9.187
		c-0.867,0-1.715,0.352-2.329,0.965c-0.602,0.585-0.964,1.445-0.964,2.328V84.18c0,0.871,0.355,1.725,0.974,2.338
		c0.595,0.602,1.447,0.955,2.319,0.955h26.158c1.013,0,1.951-0.455,2.58-1.248l0.021-0.025l0.02-0.025
		c0.598-0.788,0.812-1.79,0.582-2.749L44.125,12.701C43.771,11.216,42.454,10.177,40.924,10.177L40.924,10.177z"/>
</g>
<g>
	<path fill="#B2B2B2" d="M63.152,72.18c-1.139,0-2.242-0.214-3.285-0.635c-0.24-0.095-0.48-0.207-0.719-0.329l-0.607-0.313
		l-4.045-16.479l3.646,3.03c0.229,0.188,0.459,0.38,0.676,0.583l0.402,0.395c0.502,0.467,1.104,0.853,1.768,1.117
		c0.688,0.275,1.416,0.415,2.16,0.415c0.828-0.008,1.562-0.159,2.254-0.452c0.672-0.283,1.277-0.688,1.799-1.199
		c0.34-0.328,0.713-0.615,1.117-0.86c1.426-1.209,2.99-2.179,4.649-2.882c2.183-0.924,4.492-1.403,6.871-1.43l0.002,0.207v-0.207
		l0.203-0.002c2.34,0,4.621,0.44,6.779,1.312c2.077,0.836,3.969,2.042,5.618,3.582l0.402,0.396c0.502,0.467,1.107,0.852,1.771,1.117
		c0.686,0.276,1.411,0.416,2.159,0.416c0.83-0.008,1.564-0.16,2.254-0.451c0.632-0.268,1.203-0.64,1.703-1.105l2.654-3.991v15.103
		l-0.635,0.32c-0.754,0.698-1.613,1.254-2.555,1.653c-1.053,0.442-2.17,0.675-3.322,0.688h-0.02
		c-1.229-0.003-2.326-0.216-3.361-0.634c-1-0.399-1.916-0.983-2.717-1.729l-0.336-0.328c-1.426-1.332-3.002-2.338-4.738-3.038
		c-1.797-0.726-3.701-1.095-5.658-1.095h-0.189c-1.973,0.021-3.899,0.424-5.717,1.191c-1.41,0.598-2.744,1.432-3.965,2.479
		l-0.105,0.092l-0.123,0.068c-0.241,0.143-0.461,0.306-0.647,0.485c-0.795,0.778-1.713,1.392-2.729,1.817
		c-1.049,0.443-2.166,0.676-3.319,0.691l-0.019-1.255l0.004,1.255H63.152L63.152,72.18z"/>
	<path fill="#FFFFFF" d="M80.045,54.637c2.188,0,4.295,0.428,6.219,1.204c1.928,0.775,3.668,1.898,5.156,3.288l0.07,0.068
		l0.309,0.303c0.656,0.611,1.422,1.102,2.258,1.438c0.84,0.338,1.746,0.524,2.721,0.524h0.086c0.986-0.011,1.908-0.213,2.753-0.569
		c0.846-0.356,1.614-0.873,2.268-1.513c0.005-0.003,0.007-0.004,0.009-0.007v9.216c-0.002,0.001-0.004,0.005-0.009,0.007
		c-0.651,0.637-1.422,1.153-2.268,1.512c-0.847,0.355-1.769,0.56-2.757,0.57h0.004h-0.081c-0.978,0-1.884-0.185-2.726-0.523
		c-0.836-0.336-1.6-0.825-2.256-1.438l-0.311-0.304l-0.072-0.067c-1.486-1.39-3.227-2.512-5.152-3.287
		c-1.924-0.776-4.031-1.203-6.219-1.203c-0.061,0-0.129,0-0.203,0h0.014c-2.225,0.023-4.36,0.488-6.303,1.312
		c-1.602,0.68-3.061,1.607-4.354,2.723c-0.337,0.191-0.654,0.426-0.945,0.709c-0.651,0.639-1.42,1.154-2.267,1.512
		c-0.848,0.356-1.768,0.56-2.758,0.572h0.006h-0.084c-0.975,0-1.881-0.187-2.725-0.524c-0.199-0.08-0.396-0.173-0.594-0.272
		l-2.795-11.396c0.254,0.213,0.512,0.419,0.752,0.645l0.076,0.073l0.305,0.298c0.656,0.612,1.422,1.104,2.256,1.438
		c0.842,0.336,1.748,0.522,2.721,0.522h0.086c0.988-0.011,1.906-0.213,2.754-0.569c0.845-0.356,1.611-0.871,2.267-1.513
		c0.291-0.28,0.606-0.514,0.94-0.706c1.298-1.115,2.759-2.047,4.359-2.726c1.941-0.822,4.078-1.287,6.303-1.312h-0.016
		C79.918,54.639,79.986,54.637,80.045,54.637 M104.889,49.483l-5.301,7.932c-0.34,0.297-0.725,0.537-1.145,0.716
		c-0.506,0.213-1.049,0.325-1.613,0.331h-0.055c-0.562,0-1.084-0.101-1.599-0.308c-0.481-0.193-0.924-0.473-1.311-0.828
		l-0.281-0.273l-0.062-0.061l-0.028-0.028l-0.029-0.026c-1.784-1.668-3.832-2.974-6.084-3.879c-2.336-0.941-4.805-1.422-7.338-1.422
		l-0.133,0.002h-0.07v1.61l-0.018-1.61c-2.576,0.027-5.078,0.549-7.439,1.549c-1.768,0.748-3.432,1.771-4.948,3.045
		c-0.459,0.289-0.888,0.621-1.271,0.992c-0.401,0.396-0.853,0.694-1.351,0.905c-0.516,0.218-1.045,0.327-1.614,0.333h-0.056
		c-0.561,0-1.086-0.102-1.604-0.311c-0.476-0.189-0.914-0.469-1.301-0.824l-0.277-0.271l-0.094-0.09
		c-0.267-0.25-0.519-0.461-0.771-0.672l-0.142-0.115l-7.001-5.821l2.169,8.843l2.795,11.396l0.326,1.327l1.215,0.625
		c0.295,0.152,0.576,0.28,0.856,0.394c1.209,0.488,2.504,0.738,3.834,0.738h0.082v-2.574l0.035,2.574
		c1.351-0.02,2.654-0.291,3.883-0.809c1.188-0.502,2.267-1.219,3.197-2.133c0.094-0.09,0.207-0.174,0.346-0.254l0.244-0.141
		l0.213-0.185c1.104-0.946,2.306-1.698,3.57-2.234c1.633-0.69,3.365-1.053,5.15-1.073h0.174c1.764,0,3.479,0.332,5.094,0.983
		c1.566,0.634,2.988,1.539,4.23,2.698l0.043,0.041l0.293,0.287l0.025,0.021l0.022,0.023c0.938,0.873,2.009,1.555,3.185,2.025
		c1.215,0.49,2.508,0.739,3.84,0.739h0.084v-2.618l0.033,2.618c1.348-0.019,2.651-0.287,3.881-0.806
		c1.039-0.438,1.986-1.038,2.828-1.783l0.131-0.064l0.002-0.004l1.15-0.57v-1.859V59.37v-9.887H104.889z"/>
</g>
<g>
	<path fill="#B2B2B2" d="M63.15,86.076c-0.303,0-0.604-0.01-0.904-0.023l-1.115-0.056l-3.529-14.39l2.908,1.469
		c0.156,0.078,0.312,0.152,0.475,0.216c0.689,0.278,1.418,0.419,2.168,0.419l0.084,3l-0.022-3c0.761-0.008,1.498-0.161,2.19-0.454
		c0.673-0.282,1.275-0.688,1.8-1.2c0.33-0.322,0.707-0.613,1.121-0.863c1.424-1.207,2.985-2.176,4.646-2.879
		c2.176-0.92,4.482-1.399,6.854-1.429l0.223-0.002c2.345,0,4.625,0.441,6.781,1.313c2.078,0.837,3.967,2.043,5.614,3.582
		l0.402,0.391c0.506,0.473,1.107,0.855,1.771,1.122c0.684,0.276,1.412,0.417,2.162,0.417c0.822-0.008,1.559-0.161,2.248-0.454
		c0.68-0.288,1.285-0.69,1.803-1.198l0.434-0.435l2.123-0.001v13.244l-1.041,0.334c-1.742,0.561-3.547,0.854-5.361,0.874
		l-0.205,0.002c-2.342,0-4.622-0.441-6.782-1.312c-2.086-0.844-3.979-2.051-5.623-3.589l-0.406-0.396
		c-0.5-0.467-1.102-0.852-1.762-1.115c-0.687-0.275-1.412-0.417-2.156-0.417l-0.075,0.002c-0.761,0.008-1.492,0.159-2.185,0.451
		c-0.67,0.282-1.272,0.688-1.799,1.2c-0.336,0.328-0.714,0.617-1.125,0.865c-1.421,1.205-2.982,2.172-4.646,2.875
		c-2.178,0.922-4.486,1.403-6.863,1.433L63.15,86.076z"/>
	<path fill="#FFFFFF" d="M80.047,68.384c2.188,0,4.295,0.427,6.219,1.204c1.926,0.775,3.666,1.898,5.152,3.287l0.072,0.068
		l0.311,0.303c0.656,0.613,1.42,1.102,2.256,1.438c0.842,0.34,1.748,0.525,2.726,0.525h0.077h0.004h-0.004
		c0.988-0.011,1.91-0.215,2.757-0.572c0.846-0.359,1.614-0.871,2.268-1.512c0.005-0.002,0.005-0.004,0.007-0.004v10.65
		c-1.558,0.5-3.214,0.783-4.92,0.802h-0.007c-0.062,0.002-0.121,0.002-0.185,0.002c-2.188,0-4.297-0.427-6.225-1.203
		c-1.926-0.776-3.67-1.899-5.156-3.291l-0.069-0.067l-0.312-0.306c-0.652-0.608-1.416-1.099-2.25-1.435
		c-0.838-0.338-1.746-0.525-2.718-0.525h-0.075L79.96,77.75c-0.987,0.01-1.908,0.212-2.754,0.57
		c-0.845,0.354-1.61,0.871-2.267,1.511c-0.291,0.284-0.61,0.519-0.946,0.71c-1.293,1.113-2.752,2.042-4.354,2.721
		c-1.939,0.822-4.074,1.287-6.298,1.312h-0.004c-0.063,0.002-0.123,0.002-0.185,0.002c-0.276,0-0.557-0.008-0.829-0.021
		l-2.486-10.14c0.195,0.099,0.394,0.19,0.595,0.271c0.842,0.34,1.75,0.525,2.725,0.525h0.076h0.006H63.23
		c0.992-0.011,1.912-0.215,2.758-0.572c0.846-0.355,1.613-0.871,2.266-1.512c0.291-0.284,0.611-0.516,0.947-0.709
		c1.295-1.113,2.752-2.043,4.355-2.723c1.94-0.821,4.077-1.286,6.303-1.312h-0.014C79.918,68.385,79.986,68.384,80.047,68.384
		 M80.047,65.384l-0.223,0.002c-2.574,0.027-5.076,0.548-7.438,1.548c-1.768,0.748-3.43,1.771-4.942,3.041
		c-0.473,0.295-0.904,0.633-1.285,1.006c-0.395,0.388-0.842,0.687-1.338,0.896c-0.519,0.221-1.043,0.328-1.609,0.336h-0.059
		c-0.564,0-1.088-0.102-1.603-0.309c-0.133-0.053-0.248-0.106-0.362-0.165L55.369,68.8l1.553,6.331l2.486,10.141l0.533,2.17
		l2.229,0.11c0.324,0.017,0.652,0.025,0.979,0.025c0.086,0,0.173,0,0.265-0.003c2.584-0.039,5.058-0.561,7.392-1.549
		c1.768-0.748,3.428-1.771,4.938-3.037c0.469-0.293,0.901-0.631,1.289-1.01c0.396-0.387,0.842-0.687,1.336-0.896
		c0.521-0.222,1.047-0.328,1.616-0.334l0.13-0.001c0.526,0.008,1.041,0.109,1.524,0.309c0.479,0.191,0.918,0.471,1.303,0.823
		l0.285,0.277l0.092,0.089c1.808,1.689,3.854,2.996,6.109,3.906c2.342,0.943,4.812,1.422,7.348,1.422c0.089,0,0.173,0,0.263-0.004
		c1.978-0.028,3.901-0.348,5.765-0.943l2.084-0.669V83.77V73.12v-3h-3h-1.244l-0.818,0.817l-0.047,0.047
		c-0.381,0.375-0.83,0.675-1.334,0.889c-0.516,0.218-1.039,0.327-1.605,0.335h-0.059c-0.566,0-1.088-0.103-1.6-0.308
		c-0.488-0.195-0.929-0.476-1.312-0.832l-0.287-0.277l-0.086-0.083c-1.811-1.69-3.857-2.996-6.107-3.901
		C85.053,65.861,82.584,65.384,80.047,65.384L80.047,65.384z"/>
</g>
<g>
	<rect x="1.5" y="68.208" fill="#B2B2B2" width="26.555" height="17.658"/>
	<path fill="#FFFFFF" d="M26.555,69.708v7.094v0.472v7.095H3v-7.095v-0.472v-7.094H26.555 M29.555,66.708h-3H3H0v3v7.094v0.472
		v7.095v3h3h23.555h3v-3v-7.095v-0.472v-7.094V66.708L29.555,66.708z"/>
</g>
<g>
	<rect x="1.5" y="49.695" fill="#B2B2B2" width="26.555" height="17.659"/>
	<path fill="#FFFFFF" d="M26.555,51.195v7.093v0.472v7.094H3V58.76v-0.472v-7.093H26.555 M29.555,48.195h-3H3H0v3v7.093v0.472v7.094
		v3h3h23.555h3v-3V58.76v-0.472v-7.093V48.195L29.555,48.195z"/>
</g>
<g>
	<rect x="1.5" y="31.182" fill="#B2B2B2" width="26.555" height="17.657"/>
	<path fill="#FFFFFF" d="M26.555,32.682v7.092v0.474v7.091H3v-7.091v-0.474v-7.092H26.555 M29.555,29.682h-3H3H0v3v7.092v0.474
		v7.091v3h3h23.555h3v-3v-7.091v-0.474v-7.092V29.682L29.555,29.682z"/>
</g>
</svg>
